<svg width="77" height="77" viewBox="0 0 77 77" fill="none" xmlns="http://www.w3.org/2000/svg">
<path d="M38.5 22.4583V67.375M38.5 22.4583C38.5 19.0547 37.1479 15.7905 34.7412 13.3838C32.3345 10.9771 29.0703 9.625 25.6667 9.625H9.625C8.7741 9.625 7.95805 9.96302 7.35637 10.5647C6.75469 11.1664 6.41667 11.9824 6.41667 12.8333V54.5417C6.41667 55.3926 6.75469 56.2086 7.35637 56.8103C7.95805 57.412 8.7741 57.75 9.625 57.75H28.875C31.4277 57.75 33.8759 58.7641 35.6809 60.5691C37.4859 62.3741 38.5 64.8223 38.5 67.375M38.5 22.4583C38.5 19.0547 39.8521 15.7905 42.2588 13.3838C44.6655 10.9771 47.9297 9.625 51.3333 9.625H67.375C68.2259 9.625 69.042 9.96302 69.6436 10.5647C70.2453 11.1664 70.5833 11.9824 70.5833 12.8333V54.5417C70.5833 55.3926 70.2453 56.2086 69.6436 56.8103C69.042 57.412 68.2259 57.75 67.375 57.75H48.125C45.5723 57.75 43.1241 58.7641 41.3191 60.5691C39.5141 62.3741 38.5 64.8223 38.5 67.375" stroke="black" stroke-width="5" stroke-linecap="round" stroke-linejoin="round"/>
</svg>
